<svg width="129" height="129" viewBox="0 0 129 129" fill="none" xmlns="http://www.w3.org/2000/svg">
<circle cx="64.5" cy="64.5" r="54.5" fill="#E1E0E0"/>
<path fill-rule="evenodd" clip-rule="evenodd" d="M79.4409 51.2655C79.4409 59.8319 72.5725 66.7007 64.0001 66.7007C55.4306 66.7007 48.5593 59.8319 48.5593 51.2655C48.5593 42.6992 55.4306 35.8333 64.0001 35.8333C72.5725 35.8333 79.4409 42.6992 79.4409 51.2655ZM64.0001 94.1667C51.3487 94.1667 40.6667 92.1104 40.6667 84.177C40.6667 76.2406 51.4158 74.2573 64.0001 74.2573C76.6544 74.2573 87.3334 76.3136 87.3334 84.247C87.3334 92.1833 76.5844 94.1667 64.0001 94.1667Z" fill="black"/>
<circle cx="109" cy="100" r="18" fill="#E1E0E0" stroke="white" stroke-width="2"/>
<path d="M106.361 106.183H116.996V107.993H100.714V104.155L109.669 95.2L113.506 99.0382L106.36 106.184L106.361 106.183ZM110.947 93.921L112.867 92.0023C113.037 91.8328 113.267 91.7375 113.506 91.7375C113.746 91.7375 113.976 91.8328 114.146 92.0023L116.705 94.5605C116.875 94.7301 116.97 94.9602 116.97 95.2C116.97 95.4399 116.875 95.6699 116.705 95.8396L114.786 97.7591L110.948 93.921H110.947Z" fill="black"/>
</svg>
