<svg width="25" height="25" viewBox="0 0 25 25" fill="none" xmlns="http://www.w3.org/2000/svg">
<path d="M14.5 14.8021V6.80213M14.5 14.8021L20.602 18.2891C20.6932 18.3413 20.7965 18.3686 20.9015 18.3684C21.0066 18.3681 21.1097 18.3402 21.2007 18.2876C21.2916 18.2349 21.3671 18.1593 21.4196 18.0684C21.4721 17.9774 21.4999 17.8742 21.5 17.7691V3.83513C21.5 3.72998 21.4724 3.62667 21.42 3.53554C21.3675 3.44442 21.292 3.36868 21.2011 3.31591C21.1102 3.26315 21.0069 3.23521 20.9018 3.23489C20.7966 3.23458 20.6933 3.2619 20.602 3.31413L14.5 6.80213M14.5 14.8021H7.5M14.5 6.80213H7.5C6.43913 6.80213 5.42172 7.22355 4.67157 7.9737C3.92143 8.72384 3.5 9.74126 3.5 10.8021C3.5 11.863 3.92143 12.8804 4.67157 13.6306C5.42172 14.3807 6.43913 14.8021 7.5 14.8021M7.5 14.8021L8.257 20.1021C8.33599 20.6178 8.61528 21.0814 9.03419 21.3923C9.45309 21.7032 9.97776 21.8362 10.4942 21.7624C11.0106 21.6887 11.477 21.4141 11.7922 20.9983C12.1073 20.5826 12.2456 20.0593 12.177 19.5421L11.5 14.8021H7.5Z" stroke="white" stroke-width="1.5"/>
</svg>
