<svg width="14" height="15" viewBox="0 0 14 15" fill="none" xmlns="http://www.w3.org/2000/svg">
<path d="M12.3205 9.5743C11.8458 8.75781 11.5937 7.58586 11.5937 6.1875C11.5937 4.96916 11.1098 3.80072 10.2483 2.93923C9.38676 2.07773 8.21832 1.59375 6.99999 1.59375C5.78165 1.59375 4.61321 2.07773 3.75171 2.93923C2.89022 3.80072 2.40623 4.96916 2.40623 6.1875C2.40623 7.58641 2.15522 8.75781 1.68053 9.5743C1.58367 9.74083 1.53233 9.92992 1.53165 10.1226C1.53098 10.3152 1.58101 10.5047 1.6767 10.6719C1.7718 10.8392 1.90982 10.9781 2.07652 11.0742C2.24322 11.1703 2.43256 11.2202 2.62498 11.2187H4.60358C4.65784 11.8168 4.93379 12.373 5.3772 12.778C5.82062 13.183 6.39945 13.4076 6.99999 13.4076C7.60052 13.4076 8.17935 13.183 8.62277 12.778C9.06618 12.373 9.34213 11.8168 9.39639 11.2187H11.375C11.5671 11.2199 11.7561 11.1699 11.9225 11.0738C12.0889 10.9777 12.2267 10.8389 12.3216 10.6719C12.4177 10.5049 12.4682 10.3156 12.468 10.1229C12.4678 9.93028 12.417 9.74107 12.3205 9.5743ZM6.99999 12.0937C6.74784 12.0938 6.50343 12.0067 6.3081 11.8473C6.11277 11.6878 5.97854 11.4658 5.92811 11.2187H8.07186C8.02143 11.4658 7.8872 11.6878 7.69187 11.8473C7.49655 12.0067 7.25213 12.0938 6.99999 12.0937ZM2.9892 9.90625C3.47319 8.92187 3.71873 7.67172 3.71873 6.1875C3.71873 5.31726 4.06444 4.48266 4.67979 3.86731C5.29514 3.25195 6.12974 2.90625 6.99999 2.90625C7.87023 2.90625 8.70483 3.25195 9.32018 3.86731C9.93553 4.48266 10.2812 5.31726 10.2812 6.1875C10.2812 7.67117 10.5262 8.92187 11.0102 9.90625H2.9892Z" fill="white"/>
</svg>
