<svg width="18" height="18" viewBox="0 0 18 18" fill="none" xmlns="http://www.w3.org/2000/svg">
<path d="M4.78125 16.5938C4.78125 16.8163 4.71527 17.0338 4.59165 17.2188C4.46804 17.4038 4.29234 17.548 4.08677 17.6331C3.8812 17.7183 3.655 17.7405 3.43677 17.6971C3.21855 17.6537 3.01809 17.5466 2.86076 17.3892C2.70342 17.2319 2.59628 17.0315 2.55287 16.8132C2.50946 16.595 2.53174 16.3688 2.61689 16.1632C2.70203 15.9577 2.84623 15.782 3.03123 15.6584C3.21624 15.5347 3.43375 15.4688 3.65625 15.4688C3.95462 15.4688 4.24077 15.5873 4.45175 15.7983C4.66272 16.0092 4.78125 16.2954 4.78125 16.5938ZM5.90625 13.2188C5.68375 13.2188 5.46624 13.2847 5.28123 13.4084C5.09623 13.532 4.95203 13.7077 4.86689 13.9132C4.78174 14.1188 4.75946 14.345 4.80287 14.5632C4.84628 14.7815 4.95342 14.9819 5.11076 15.1392C5.26809 15.2966 5.46855 15.4037 5.68677 15.4471C5.905 15.4905 6.1312 15.4683 6.33677 15.3831C6.54234 15.298 6.71804 15.1538 6.84165 14.9688C6.96527 14.7838 7.03125 14.5663 7.03125 14.3438C7.03125 14.0454 6.91272 13.7592 6.70175 13.5483C6.49077 13.3373 6.20462 13.2188 5.90625 13.2188ZM1.40625 13.2188C1.18375 13.2188 0.966239 13.2847 0.781234 13.4084C0.596229 13.532 0.452035 13.7077 0.366886 13.9132C0.281737 14.1188 0.259459 14.345 0.302867 14.5632C0.346275 14.7815 0.453421 14.9819 0.610755 15.1392C0.768089 15.2966 0.968545 15.4037 1.18677 15.4471C1.405 15.4905 1.6312 15.4683 1.83677 15.3831C2.04234 15.298 2.21804 15.1538 2.34165 14.9688C2.46527 14.7838 2.53125 14.5663 2.53125 14.3438C2.53125 14.0454 2.41272 13.7592 2.20175 13.5483C1.99077 13.3373 1.70462 13.2188 1.40625 13.2188ZM3.65625 13.2188C3.87875 13.2188 4.09626 13.1528 4.28127 13.0292C4.46627 12.9055 4.61047 12.7298 4.69562 12.5243C4.78076 12.3187 4.80304 12.0925 4.75963 11.8743C4.71623 11.656 4.60908 11.4556 4.45175 11.2983C4.29441 11.1409 4.09396 11.0338 3.87573 10.9904C3.6575 10.947 3.4313 10.9692 3.22573 11.0544C3.02016 11.1395 2.84446 11.2837 2.72085 11.4687C2.59723 11.6537 2.53125 11.8713 2.53125 12.0938C2.53125 12.3921 2.64978 12.6783 2.86076 12.8892C3.07173 13.1002 3.35788 13.2188 3.65625 13.2188ZM18 2.81251C18 3.03628 17.9111 3.25089 17.7529 3.40913C17.5946 3.56736 17.38 3.65626 17.1562 3.65626H15.5391L13.7243 5.46961L12.2161 14.2966C12.173 14.5511 12.0607 14.7887 11.8915 14.9835C11.7223 15.1784 11.5028 15.3229 11.257 15.4013C11.0111 15.4798 10.7484 15.489 10.4977 15.4281C10.2469 15.3672 10.0178 15.2385 9.83531 15.056L2.94469 8.1654C2.7618 7.98278 2.63278 7.7533 2.57178 7.50215C2.51079 7.251 2.52019 6.98791 2.59895 6.74175C2.67771 6.49559 2.82278 6.2759 3.01823 6.10681C3.21368 5.93771 3.45195 5.82574 3.70688 5.78321L12.5311 4.27571L14.426 2.38079C14.5562 2.24976 14.7112 2.14587 14.8818 2.07514C15.0525 2.00442 15.2355 1.96825 15.4202 1.96876H17.1562C17.38 1.96876 17.5946 2.05765 17.7529 2.21588C17.9111 2.37412 18 2.58873 18 2.81251ZM11.9053 6.09469L4.5225 7.3561L10.6446 13.4782L11.9053 6.09469Z" fill="#939393"/>
</svg>
