<svg width="25" height="25" viewBox="0 0 25 25" fill="none" xmlns="http://www.w3.org/2000/svg">
<path d="M3.5 18.8021H11V20.3021H3.5V18.8021ZM3.5 14.3021H11V15.8021H3.5V14.3021ZM20 11.3021H5C4.60218 11.3021 4.22064 11.1441 3.93934 10.8628C3.65804 10.5815 3.5 10.1999 3.5 9.80212V5.30212C3.5 4.9043 3.65804 4.52277 3.93934 4.24146C4.22064 3.96016 4.60218 3.80212 5 3.80212H20C20.3978 3.80212 20.7794 3.96016 21.0607 4.24146C21.342 4.52277 21.5 4.9043 21.5 5.30212V9.80212C21.5 10.1999 21.342 10.5815 21.0607 10.8628C20.7794 11.1441 20.3978 11.3021 20 11.3021ZM5 5.30212V9.80212H20V5.30212H5ZM20 21.8021H15.5C15.1022 21.8021 14.7206 21.6441 14.4393 21.3628C14.158 21.0815 14 20.6999 14 20.3021V15.8021C14 15.4043 14.158 15.0228 14.4393 14.7415C14.7206 14.4602 15.1022 14.3021 15.5 14.3021H20C20.3978 14.3021 20.7794 14.4602 21.0607 14.7415C21.342 15.0228 21.5 15.4043 21.5 15.8021V20.3021C21.5 20.6999 21.342 21.0815 21.0607 21.3628C20.7794 21.6441 20.3978 21.8021 20 21.8021ZM15.5 15.8021V20.3021H20V15.8021H15.5Z" fill="white"/>
</svg>
