<svg width="21" height="21" viewBox="0 0 21 21" fill="none" xmlns="http://www.w3.org/2000/svg">
<path d="M10.5 12.25C12.4303 12.25 14 10.6803 14 8.75C14 6.81975 12.4303 5.25 10.5 5.25C8.56975 5.25 7 6.81975 7 8.75C7 10.6803 8.56975 12.25 10.5 12.25ZM10.5 7C11.4651 7 12.25 7.78487 12.25 8.75C12.25 9.71513 11.4651 10.5 10.5 10.5C9.53487 10.5 8.75 9.71513 8.75 8.75C8.75 7.78487 9.53487 7 10.5 7Z" fill="#939393"/>
<path d="M9.99246 19.0873C10.1405 19.193 10.318 19.2499 10.5 19.2499C10.6819 19.2499 10.8594 19.193 11.0075 19.0873C11.2735 18.8991 17.5253 14.385 17.5 8.75C17.5 4.89038 14.3596 1.75 10.5 1.75C6.64033 1.75 3.49995 4.89038 3.49995 8.74563C3.47458 14.385 9.72646 18.8991 9.99246 19.0873ZM10.5 3.5C13.3953 3.5 15.75 5.85463 15.75 8.75438C15.7683 12.6376 11.9105 16.1245 10.5 17.2681C9.09033 16.1236 5.23158 12.6359 5.24996 8.75C5.24996 5.85463 7.60458 3.5 10.5 3.5Z" fill="#939393"/>
</svg>
