<svg width="51" height="50" viewBox="0 0 51 50" fill="none" xmlns="http://www.w3.org/2000/svg">
<path d="M29.1458 9.375C30.9415 9.375 32.6637 10.0884 33.9335 11.3581C35.2033 12.6279 35.9166 14.3501 35.9166 16.1458V16.5062L43.9666 11.6771C44.2037 11.5348 44.4743 11.4579 44.7508 11.4544C45.0273 11.4508 45.2998 11.5208 45.5405 11.657C45.7811 11.7932 45.9813 11.9908 46.1206 12.2297C46.2599 12.4686 46.3333 12.7401 46.3333 13.0167V36.9792C46.3333 37.2557 46.2599 37.5273 46.1206 37.7661C45.9813 38.005 45.7811 38.2027 45.5405 38.3389C45.2998 38.4751 45.0273 38.545 44.7508 38.5414C44.4743 38.5379 44.2037 38.4611 43.9666 38.3187L35.9166 33.4896V33.8542C35.9166 35.6499 35.2033 37.3721 33.9335 38.6419C32.6637 39.9116 30.9415 40.625 29.1458 40.625H11.4375C9.64172 40.625 7.91953 39.9116 6.64976 38.6419C5.37998 37.3721 4.66663 35.6499 4.66663 33.8542V16.1458C4.66663 14.3501 5.37998 12.6279 6.64976 11.3581C7.91953 10.0884 9.64172 9.375 11.4375 9.375H29.1458ZM29.1458 12.5H11.4375C10.4705 12.5 9.54319 12.8841 8.85947 13.5678C8.17574 14.2516 7.79163 15.1789 7.79163 16.1458V33.8542C7.79163 35.8667 9.42496 37.5 11.4375 37.5H29.1458C30.1127 37.5 31.0401 37.1159 31.7238 36.4322C32.4075 35.7484 32.7916 34.8211 32.7916 33.8542V16.1458C32.7916 15.1789 32.4075 14.2516 31.7238 13.5678C31.0401 12.8841 30.1127 12.5 29.1458 12.5ZM43.2083 15.7771L35.9166 20.1542V29.8437L43.2083 34.2187V15.7771Z" fill="#606060"/>
</svg>
