<svg width="25" height="25" viewBox="0 0 25 25" fill="none" xmlns="http://www.w3.org/2000/svg">
<path d="M17.5 20.8021C17.5 19.1451 15.261 17.8021 12.5 17.8021C9.739 17.8021 7.5 19.1451 7.5 20.8021M21.5 17.8021C21.5 16.5721 20.266 15.5151 18.5 15.0521M3.5 17.8021C3.5 16.5721 4.734 15.5151 6.5 15.0521M18.5 11.0381C18.7963 10.7762 19.0378 10.4583 19.2108 10.1027C19.3838 9.74712 19.4847 9.36084 19.5079 8.96608C19.531 8.57133 19.4759 8.17589 19.3456 7.80252C19.2154 7.42914 19.0127 7.0852 18.749 6.79046C18.4854 6.49573 18.1661 6.25602 17.8095 6.08513C17.4529 5.91423 17.0661 5.81552 16.6712 5.79467C16.2763 5.77382 15.8812 5.83124 15.5086 5.96364C15.136 6.09603 14.7932 6.30079 14.5 6.56612M6.5 11.0381C5.9123 10.5063 5.55896 9.76345 5.51717 8.97192C5.47538 8.18039 5.74853 7.40449 6.27696 6.81371C6.80539 6.22293 7.54614 5.86528 8.33741 5.81889C9.12868 5.7725 9.90616 6.04114 10.5 6.56612M12.5 14.8021C12.106 14.8021 11.7159 14.7245 11.3519 14.5738C10.988 14.423 10.6573 14.202 10.3787 13.9234C10.1001 13.6449 9.87913 13.3141 9.72836 12.9502C9.5776 12.5862 9.5 12.1961 9.5 11.8021C9.5 11.4082 9.5776 11.018 9.72836 10.6541C9.87913 10.2901 10.1001 9.95938 10.3787 9.6808C10.6573 9.40222 10.988 9.18125 11.3519 9.03048C11.7159 8.87972 12.106 8.80212 12.5 8.80212C13.2956 8.80212 14.0587 9.11819 14.6213 9.6808C15.1839 10.2434 15.5 11.0065 15.5 11.8021C15.5 12.5978 15.1839 13.3608 14.6213 13.9234C14.0587 14.4861 13.2956 14.8021 12.5 14.8021Z" stroke="white" stroke-width="2" stroke-linecap="round" stroke-linejoin="round"/>
</svg>
