<svg width="30" height="30" viewBox="0 0 30 30" fill="none" xmlns="http://www.w3.org/2000/svg">
<rect width="30" height="30" rx="15" fill="#F2F2F2"/>
<path d="M21.0051 21.5195C20.6943 21.822 20.2728 21.992 19.8333 21.992C19.3938 21.992 18.9724 21.822 18.6616 21.5195L15.0007 17.4456L11.3398 21.5181C11.1864 21.6699 11.0036 21.7907 10.802 21.8734C10.6004 21.9561 10.384 21.9991 10.1653 22C9.94651 22.0009 9.72975 21.9595 9.52748 21.8784C9.32521 21.7973 9.14143 21.678 8.98675 21.5274C8.83206 21.3768 8.70954 21.1979 8.62624 21.001C8.54293 20.8041 8.5005 20.593 8.50139 20.38C8.50229 20.1671 8.54648 19.9564 8.63142 19.7601C8.71637 19.5638 8.84039 19.3859 8.99633 19.2365L12.805 15.0013L8.99495 10.7635C8.83901 10.6141 8.71499 10.4362 8.63004 10.2399C8.5451 10.0436 8.5009 9.83294 8.50001 9.61997C8.49912 9.40699 8.54155 9.19595 8.62485 8.99901C8.70816 8.80208 8.83068 8.62315 8.98536 8.47255C9.14005 8.32195 9.32382 8.20266 9.5261 8.12156C9.72837 8.04046 9.94513 7.99915 10.1639 8.00001C10.3826 8.00088 10.599 8.04391 10.8006 8.12661C11.0022 8.20932 11.185 8.33006 11.3384 8.48188L15.0007 12.557L18.6616 8.48188C18.815 8.33006 18.9978 8.20932 19.1994 8.12661C19.401 8.04391 19.6174 8.00088 19.8361 8.00001C20.0549 7.99915 20.2716 8.04046 20.4739 8.12156C20.6762 8.20266 20.86 8.32195 21.0146 8.47255C21.1693 8.62315 21.2918 8.80208 21.3751 8.99901C21.4584 9.19595 21.5009 9.40699 21.5 9.61997C21.4991 9.83294 21.4549 10.0436 21.37 10.2399C21.285 10.4362 21.161 10.6141 21.0051 10.7635L17.1964 15.0013L21.0051 19.2365C21.1591 19.3863 21.2814 19.5643 21.3648 19.7602C21.4481 19.956 21.4911 20.166 21.4911 20.378C21.4911 20.59 21.4481 20.8 21.3648 20.9958C21.2814 21.1917 21.1591 21.3696 21.0051 21.5195Z" fill="#EC1C24"/>
</svg>
