<svg width="33" height="33" viewBox="0 0 33 33" fill="none" xmlns="http://www.w3.org/2000/svg">
<path d="M21.2556 21.6836L22.027 20.9173C25.5962 21.0339 25.6511 20.9088 25.8079 20.5419L26.7885 18.1547L26.8614 17.9284L26.7817 17.7304C26.7397 17.6259 26.6102 17.3139 24.3816 15.189V14.0712C26.9531 11.5941 26.8982 11.4672 26.7517 11.1046L25.7754 8.69258C25.6288 8.33086 25.5731 8.18943 22.0296 8.28629L21.2582 7.48914C21.3378 6.31492 21.2973 5.13564 21.1373 3.96965L21.0379 3.74422L18.4887 2.62992C18.1133 2.45849 17.9813 2.39677 15.5744 5.01796L14.4926 5.00167C12.0146 2.35649 11.8972 2.40449 11.526 2.55449L9.15598 3.51279C8.78483 3.66279 8.65368 3.71594 8.79768 7.31599L8.03224 8.07886C4.46476 7.96229 4.4099 8.08915 4.25476 8.45429L3.27246 10.8423L3.19531 11.0712L3.27589 11.2701C3.31789 11.3729 3.44217 11.6815 5.67592 13.8089V14.9232C3.10445 17.4004 3.16017 17.5273 3.3076 17.8907L4.28304 20.3053C4.43219 20.6748 4.48533 20.8059 8.02796 20.7133L8.7994 21.5148C8.71944 22.6872 8.75878 23.8647 8.91683 25.0291L9.01626 25.2563L11.5817 26.3774C11.9546 26.5334 12.084 26.5891 14.4841 23.9774L15.5658 23.9911C18.0473 26.6397 18.1741 26.5883 18.5367 26.4417L20.9016 25.486C21.2753 25.3377 21.4056 25.2854 21.2556 21.6836ZM11.0914 16.0916C10.7923 15.3099 10.7308 14.4573 10.9144 13.6407C11.0981 12.8242 11.5188 12.08 12.1238 11.5017C12.7288 10.9234 13.4911 10.5366 14.3151 10.39C15.1391 10.2433 15.9881 10.3432 16.7555 10.6773C17.5229 11.0113 18.1746 11.5645 18.6287 12.2675C19.0829 12.9705 19.3193 13.792 19.3083 14.6289C19.2973 15.4658 19.0394 16.2808 18.567 16.9716C18.0945 17.6625 17.4286 18.1984 16.6527 18.5122C15.594 18.9261 14.4145 18.9039 13.3722 18.4502C12.3299 17.9965 11.5099 17.1485 11.0914 16.0916Z" stroke="white" stroke-width="2"/>
</svg>
