<svg width="25" height="25" viewBox="0 0 25 25" fill="none" xmlns="http://www.w3.org/2000/svg">
<path d="M6.5 13.8021H2.5C2.23478 13.8021 1.98043 13.9075 1.79289 14.095C1.60536 14.2826 1.5 14.5369 1.5 14.8021V22.8021C1.5 23.0673 1.60536 23.3217 1.79289 23.5092C1.98043 23.6968 2.23478 23.8021 2.5 23.8021H6.5C6.76522 23.8021 7.01957 23.6968 7.20711 23.5092C7.39464 23.3217 7.5 23.0673 7.5 22.8021V14.8021C7.5 14.5369 7.39464 14.2826 7.20711 14.095C7.01957 13.9075 6.76522 13.8021 6.5 13.8021ZM5.5 21.8021H3.5V15.8021H5.5V21.8021ZM22.5 9.80212H18.5C18.2348 9.80212 17.9804 9.90748 17.7929 10.095C17.6054 10.2826 17.5 10.5369 17.5 10.8021V22.8021C17.5 23.0673 17.6054 23.3217 17.7929 23.5092C17.9804 23.6968 18.2348 23.8021 18.5 23.8021H22.5C22.7652 23.8021 23.0196 23.6968 23.2071 23.5092C23.3946 23.3217 23.5 23.0673 23.5 22.8021V10.8021C23.5 10.5369 23.3946 10.2826 23.2071 10.095C23.0196 9.90748 22.7652 9.80212 22.5 9.80212ZM21.5 21.8021H19.5V11.8021H21.5V21.8021ZM14.5 1.80212H10.5C10.2348 1.80212 9.98043 1.90748 9.79289 2.09502C9.60536 2.28255 9.5 2.53691 9.5 2.80212V22.8021C9.5 23.0673 9.60536 23.3217 9.79289 23.5092C9.98043 23.6968 10.2348 23.8021 10.5 23.8021H14.5C14.7652 23.8021 15.0196 23.6968 15.2071 23.5092C15.3946 23.3217 15.5 23.0673 15.5 22.8021V2.80212C15.5 2.53691 15.3946 2.28255 15.2071 2.09502C15.0196 1.90748 14.7652 1.80212 14.5 1.80212ZM13.5 21.8021H11.5V3.80212H13.5V21.8021Z" fill="white"/>
</svg>
