<svg width="21" height="21" viewBox="0 0 21 21" fill="none" xmlns="http://www.w3.org/2000/svg">
<g clip-path="url(#clip0_108_18466)">
<path d="M20.0903 6.47882L14.5218 0.910321C14.4398 0.828302 14.3285 0.782227 14.2125 0.782227C14.0965 0.782227 13.9852 0.828302 13.9032 0.910321L0.910321 13.9032C0.828302 13.9852 0.782227 14.0965 0.782227 14.2125C0.782227 14.3285 0.828302 14.4398 0.910321 14.5218L6.47882 20.0903C6.56086 20.1723 6.67212 20.2184 6.78813 20.2184C6.90414 20.2184 7.0154 20.1723 7.09745 20.0903L9.87995 17.3078L9.8817 17.3061L12.3553 14.8324H12.3562V14.8307L14.8316 12.3571L17.3061 9.8817L20.0903 7.09745C20.1723 7.0154 20.2184 6.90414 20.2184 6.78813C20.2184 6.67212 20.1723 6.56086 20.0903 6.47882ZM16.9972 8.95332L15.4502 7.4072C15.4098 7.36541 15.3616 7.33208 15.3082 7.30915C15.2548 7.28622 15.1974 7.27415 15.1393 7.27365C15.0812 7.27314 15.0236 7.28421 14.9698 7.30621C14.9161 7.32821 14.8672 7.36069 14.8261 7.40177C14.7851 7.44285 14.7526 7.4917 14.7306 7.54547C14.7086 7.59923 14.6975 7.65684 14.698 7.71493C14.6985 7.77303 14.7106 7.83043 14.7335 7.88381C14.7565 7.93719 14.7898 7.98546 14.8316 8.02582L16.3786 9.57195L14.5218 11.4287L11.7376 8.64444C11.6972 8.60266 11.6489 8.56933 11.5956 8.5464C11.5422 8.52347 11.4848 8.5114 11.4267 8.5109C11.3686 8.51039 11.311 8.52146 11.2572 8.54346C11.2034 8.56546 11.1546 8.59794 11.1135 8.63902C11.0724 8.6801 11.04 8.72895 11.018 8.78271C10.996 8.83648 10.9849 8.89409 10.9854 8.95218C10.9859 9.01027 10.998 9.06768 11.0209 9.12106C11.0438 9.17444 11.0772 9.22271 11.1189 9.26307L13.9032 12.0473L12.0473 13.9032L10.5003 12.3562C10.4178 12.2765 10.3073 12.2324 10.1926 12.2334C10.0779 12.2344 9.96814 12.2804 9.88702 12.3615C9.80591 12.4426 9.7599 12.5524 9.7589 12.6671C9.7579 12.7818 9.802 12.8923 9.8817 12.9748L11.4278 14.5218L9.57282 16.3786L6.7877 13.5934C6.74734 13.5517 6.69906 13.5183 6.64569 13.4954C6.59231 13.4725 6.5349 13.4604 6.47681 13.4599C6.41872 13.4594 6.36111 13.4705 6.30734 13.4925C6.25357 13.5145 6.20473 13.5469 6.16365 13.588C6.12257 13.6291 6.09008 13.6779 6.06809 13.7317C6.04609 13.7855 6.03502 13.8431 6.03552 13.9012C6.03603 13.9593 6.0481 14.0167 6.07103 14.0701C6.09396 14.1234 6.12729 14.1717 6.16907 14.2121L8.95332 16.9972L6.7877 19.1619L1.8387 14.2121L14.2121 1.8387L19.1628 6.78857L16.9972 8.95332Z" fill="#939393"/>
</g>
<defs>
<clipPath id="clip0_108_18466">
<rect width="21" height="21" fill="white"/>
</clipPath>
</defs>
</svg>
