<svg width="24" height="24" viewBox="0 0 24 24" fill="none" xmlns="http://www.w3.org/2000/svg">
<g clip-path="url(#clip0_30_1209)">
<path fill-rule="evenodd" clip-rule="evenodd" d="M14.535 12.225L18.777 16.468L14.534 20.711C14.3465 20.8986 14.0922 21.004 13.827 21.004H11C10.7348 21.004 10.4804 20.8987 10.2929 20.7111C10.1054 20.5236 10 20.2692 10 20.004V17.175C10.0001 16.9098 10.1055 16.6555 10.293 16.468L14.536 12.225H14.535ZM17 2.00002C17.5046 1.99986 17.9906 2.19042 18.3605 2.53351C18.7305 2.8766 18.9572 3.34686 18.995 3.85002L19 4.00002V8.02002C18.2445 7.8767 17.4662 7.9097 16.7255 8.11646C15.9849 8.32321 15.302 8.69813 14.73 9.21202L14.534 9.39702L8.878 15.054C8.36391 15.5682 8.05403 16.2515 8.006 16.977L7.999 17.175V20.004C7.99908 20.2758 8.03609 20.5462 8.109 20.808L8.169 21H5C4.49542 21.0002 4.00943 20.8096 3.63945 20.4665C3.26947 20.1234 3.04284 19.6532 3.005 19.15L3 19V4.00002C2.99984 3.49544 3.19041 3.00945 3.5335 2.63947C3.87659 2.26949 4.34684 2.04286 4.85 2.00502L5 2.00002H17ZM20.191 10.811C20.4696 11.0896 20.6907 11.4203 20.8414 11.7843C20.9922 12.1484 21.0699 12.5385 21.0699 12.9325C21.0699 13.3265 20.9922 13.7167 20.8414 14.0807C20.6907 14.4447 20.4696 14.7754 20.191 15.054L15.95 10.81C16.5126 10.2476 17.2755 9.93166 18.071 9.93166C18.8665 9.93166 19.6294 10.2476 20.192 10.81L20.191 10.811ZM11 6.00002H7C6.73478 6.00002 6.48043 6.10537 6.29289 6.29291C6.10536 6.48044 6 6.7348 6 7.00002C6 7.26523 6.10536 7.51959 6.29289 7.70712C6.48043 7.89466 6.73478 8.00002 7 8.00002H11C11.2652 8.00002 11.5196 7.89466 11.7071 7.70712C11.8946 7.51959 12 7.26523 12 7.00002C12 6.7348 11.8946 6.48044 11.7071 6.29291C11.5196 6.10537 11.2652 6.00002 11 6.00002Z" fill="black"/>
</g>
<defs>
<clipPath id="clip0_30_1209">
<rect width="24" height="24" fill="white"/>
</clipPath>
</defs>
</svg>
