<svg width="38" height="38" viewBox="0 0 38 38" fill="none" xmlns="http://www.w3.org/2000/svg">
<rect x="0.5" y="0.5" width="37" height="37" rx="18.5" fill="white"/>
<rect x="0.5" y="0.5" width="37" height="37" rx="18.5" stroke="#CFCFCF"/>
<path d="M10 23.6671V27H13.7495L24.808 17.1702L21.0585 13.8373L10 23.6671ZM27.7076 14.5928C27.8003 14.5106 27.8738 14.4129 27.924 14.3054C27.9742 14.1979 28 14.0826 28 13.9662C28 13.8498 27.9742 13.7346 27.924 13.627C27.8738 13.5195 27.8003 13.4219 27.7076 13.3396L25.3679 11.2599C25.2754 11.1775 25.1655 11.1122 25.0446 11.0676C24.9236 11.023 24.794 11 24.663 11C24.5321 11 24.4024 11.023 24.2814 11.0676C24.1605 11.1122 24.0506 11.1775 23.9581 11.2599L22.1284 12.8864L25.8778 16.2192L27.7076 14.5928Z" fill="#272727"/>
</svg>
