<svg width="22" height="22" viewBox="0 0 22 22" fill="none" xmlns="http://www.w3.org/2000/svg">
<path d="M19.9704 1.99699C19.605 1.63146 19.171 1.34158 18.6934 1.14395C18.2158 0.946311 17.7039 0.844798 17.187 0.845216C16.6701 0.845634 16.1584 0.947975 15.6811 1.14638C15.2038 1.34479 14.7703 1.63537 14.4054 2.00149L13.2354 3.17599L18.7944 8.73649L19.9734 7.55449C20.7094 6.81669 21.1223 5.8169 21.1214 4.77481C21.1206 3.73272 20.7076 2.73359 19.9704 1.99699ZM3.20342 13.235L12.1734 4.23799L17.7339 9.79849L8.76842 18.791C8.53236 19.028 8.24642 19.2094 7.93142 19.322L1.97792 21.446C1.77715 21.5177 1.56015 21.5308 1.35219 21.484C1.14423 21.4371 0.953869 21.3321 0.803285 21.1812C0.652702 21.0303 0.548092 20.8397 0.501641 20.6316C0.45519 20.4236 0.46881 20.2066 0.540915 20.006L2.67992 14.0615C2.79168 13.7509 2.97041 13.4688 3.20342 13.235ZM1.25042 1.99999H12.2859L10.7904 3.49999H1.25042C1.0515 3.49999 0.860737 3.42097 0.720085 3.28032C0.579433 3.13967 0.500415 2.9489 0.500415 2.74999C0.500415 2.55108 0.579433 2.36031 0.720085 2.21966C0.860737 2.07901 1.0515 1.99999 1.25042 1.99999ZM1.25042 4.99999H9.29492L7.79942 6.49999H1.25042C1.0515 6.49999 0.860737 6.42097 0.720085 6.28032C0.579433 6.13967 0.500415 5.9489 0.500415 5.74999C0.500415 5.55108 0.579433 5.36031 0.720085 5.21966C0.860737 5.07901 1.0515 4.99999 1.25042 4.99999ZM1.25042 7.99999H6.30542L4.80842 9.49999H1.25042C1.0515 9.49999 0.860737 9.42097 0.720085 9.28032C0.579433 9.13966 0.500415 8.9489 0.500415 8.74999C0.500415 8.55107 0.579433 8.36031 0.720085 8.21966C0.860737 8.07901 1.0515 7.99999 1.25042 7.99999Z" fill="white"/>
</svg>
