<svg width="28" height="27" viewBox="0 0 28 27" fill="none" xmlns="http://www.w3.org/2000/svg">
<path d="M4.96657 24.9966H27.9666V26.9966H4.96657V24.9966ZM25.3466 8.50657L17.4166 0.586573C17.2308 0.40062 17.0103 0.253102 16.7675 0.152454C16.5247 0.0518051 16.2644 0 16.0016 0C15.7387 0 15.4785 0.0518051 15.2357 0.152454C14.9929 0.253102 14.7723 0.40062 14.5866 0.586573L0.586573 14.5866C0.40062 14.7723 0.253102 14.9929 0.152454 15.2357C0.0518053 15.4785 0 15.7387 0 16.0016C0 16.2644 0.0518053 16.5247 0.152454 16.7675C0.253102 17.0103 0.40062 17.2308 0.586573 17.4166L5.09657 21.9966H14.6866L25.3466 11.3366C25.5325 11.1508 25.68 10.9303 25.7807 10.6875C25.8813 10.4447 25.9331 10.1844 25.9331 9.92157C25.9331 9.65874 25.8813 9.39849 25.7807 9.15569C25.68 8.9129 25.5325 8.69232 25.3466 8.50657ZM13.8566 19.9966H5.96657L1.96657 15.9966L8.27657 9.68657L16.2066 17.6066L13.8566 19.9966ZM17.6166 16.2366L9.69657 8.30657L15.9666 1.99657L23.9666 9.92657L17.6166 16.2366Z" fill="black"/>
</svg>
