<svg width="20" height="20" viewBox="0 0 20 20" fill="none" xmlns="http://www.w3.org/2000/svg">
<path d="M4.16699 4.16667C4.16699 3.72464 4.34259 3.30072 4.65515 2.98816C4.96771 2.67559 5.39163 2.5 5.83366 2.5H14.167C14.609 2.5 15.0329 2.67559 15.3455 2.98816C15.6581 3.30072 15.8337 3.72464 15.8337 4.16667V5.83333C15.8337 6.27536 15.6581 6.69928 15.3455 7.01184C15.0329 7.3244 14.609 7.5 14.167 7.5H5.83366C5.39163 7.5 4.96771 7.3244 4.65515 7.01184C4.34259 6.69928 4.16699 6.27536 4.16699 5.83333V4.16667Z" stroke="#606060" stroke-width="1.5" stroke-linecap="round" stroke-linejoin="round"/>
<path d="M15.834 5H16.6673C17.1093 5 17.5333 5.17559 17.8458 5.48816C18.1584 5.80072 18.334 6.22464 18.334 6.66667C18.334 7.77174 17.895 8.83154 17.1136 9.61294C16.3322 10.3943 15.2724 10.8333 14.1673 10.8333H10.0007V12.5M8.33398 13.3333C8.33398 13.1123 8.42178 12.9004 8.57806 12.7441C8.73434 12.5878 8.9463 12.5 9.16732 12.5H10.834C11.055 12.5 11.267 12.5878 11.4232 12.7441C11.5795 12.9004 11.6673 13.1123 11.6673 13.3333V16.6667C11.6673 16.8877 11.5795 17.0996 11.4232 17.2559C11.267 17.4122 11.055 17.5 10.834 17.5H9.16732C8.9463 17.5 8.73434 17.4122 8.57806 17.2559C8.42178 17.0996 8.33398 16.8877 8.33398 16.6667V13.3333Z" stroke="#606060" stroke-width="1.5" stroke-linecap="round" stroke-linejoin="round"/>
</svg>
