<svg width="24" height="24" viewBox="0 0 24 24" fill="none" xmlns="http://www.w3.org/2000/svg">
<path fill-rule="evenodd" clip-rule="evenodd" d="M7.66618 22H16.3328C19.7231 22 22 19.6219 22 16.0833V7.91675C22 4.37814 19.7231 2.00003 16.3338 2.00003H7.66618C4.2769 2.00003 2 4.37814 2 7.91675V16.0833C2 19.6219 4.2769 22 7.66618 22ZM8.49886 11C7.12021 11 6 9.8783 6 8.50003C6 7.12176 7.12021 6.00003 8.49886 6.00003C9.8765 6.00003 10.9977 7.12176 10.9977 8.50003C10.9977 9.8783 9.8765 11 8.49886 11ZM19.8208 14.934C20.1557 15.7926 19.9817 16.8246 19.6237 17.675C19.1994 18.6863 18.3869 19.452 17.3632 19.7864C16.9087 19.935 16.432 20 15.9564 20H7.52864C6.68999 20 5.94788 19.7988 5.3395 19.4242C4.95839 19.1889 4.89102 18.6461 5.17358 18.2941C5.6462 17.7059 6.11279 17.1156 6.5834 16.5202C7.48038 15.3808 8.08473 15.0506 8.75645 15.3406C9.02896 15.4603 9.30248 15.6399 9.58404 15.8298C10.3342 16.3396 11.377 17.0403 12.7506 16.2797C13.6906 15.7532 14.2358 14.8502 14.7106 14.0638L14.7185 14.0506C14.7522 13.9954 14.7855 13.9403 14.8187 13.8852C14.9783 13.6212 15.1357 13.3608 15.3138 13.1208C15.5371 12.8205 16.3646 11.8814 17.4366 12.5501C18.1194 12.9711 18.6936 13.5408 19.308 14.1507C19.5423 14.3839 19.7092 14.6492 19.8208 14.934Z" fill="black"/>
</svg>
