<svg width="41" height="40" viewBox="0 0 41 40" fill="none" xmlns="http://www.w3.org/2000/svg">
<path d="M20.5 11C20.5 13.3869 19.5518 15.6761 17.864 17.364C16.1761 19.0518 13.8869 20 11.5 20C9.11305 20 6.82387 19.0518 5.13604 17.364C3.44821 15.6761 2.5 13.3869 2.5 11C2.5 8.61305 3.44821 6.32387 5.13604 4.63604C6.82387 2.94821 9.11305 2 11.5 2C13.8869 2 16.1761 2.94821 17.864 4.63604C19.5518 6.32387 20.5 8.61305 20.5 11ZM12.5 7C12.5 6.73478 12.3946 6.48043 12.2071 6.29289C12.0196 6.10536 11.7652 6 11.5 6C11.2348 6 10.9804 6.10536 10.7929 6.29289C10.6054 6.48043 10.5 6.73478 10.5 7V10H7.5C7.23478 10 6.98043 10.1054 6.79289 10.2929C6.60536 10.4804 6.5 10.7348 6.5 11C6.5 11.2652 6.60536 11.5196 6.79289 11.7071C6.98043 11.8946 7.23478 12 7.5 12H10.5V15C10.5 15.2652 10.6054 15.5196 10.7929 15.7071C10.9804 15.8946 11.2348 16 11.5 16C11.7652 16 12.0196 15.8946 12.2071 15.7071C12.3946 15.5196 12.5 15.2652 12.5 15V12H15.5C15.7652 12 16.0196 11.8946 16.2071 11.7071C16.3946 11.5196 16.5 11.2652 16.5 11C16.5 10.7348 16.3946 10.4804 16.2071 10.2929C16.0196 10.1054 15.7652 10 15.5 10H12.5V7ZM11.5 22C13.3828 22.0003 15.2343 21.5174 16.877 20.5974C18.5198 19.6773 19.8989 18.351 20.8823 16.7454C21.8658 15.1398 22.4206 13.3087 22.4937 11.4272C22.5669 9.5458 22.1558 7.6771 21.3 6H28.5C30.0913 6 31.6174 6.63214 32.7426 7.75736C33.8679 8.88258 34.5 10.4087 34.5 12V28C34.5 29.3 34.088 30.5 33.386 31.484L22.606 20.868C22.0448 20.3153 21.2887 20.0055 20.501 20.0055C19.7133 20.0055 18.9572 20.3153 18.396 20.868L7.616 31.484C6.88869 30.468 6.49837 29.2495 6.5 28V20.8C8 21.568 9.7 22 11.5 22ZM25.5 16C25.7652 16 26.0196 15.8946 26.2071 15.7071C26.3946 15.5196 26.5 15.2652 26.5 15C26.5 14.7348 26.3946 14.4804 26.2071 14.2929C26.0196 14.1054 25.7652 14 25.5 14C25.2348 14 24.9804 14.1054 24.7929 14.2929C24.6054 14.4804 24.5 14.7348 24.5 15C24.5 15.2652 24.6054 15.5196 24.7929 15.7071C24.9804 15.8946 25.2348 16 25.5 16ZM25.5 18C26.2956 18 27.0587 17.6839 27.6213 17.1213C28.1839 16.5587 28.5 15.7956 28.5 15C28.5 14.2044 28.1839 13.4413 27.6213 12.8787C27.0587 12.3161 26.2956 12 25.5 12C24.7044 12 23.9413 12.3161 23.3787 12.8787C22.8161 13.4413 22.5 14.2044 22.5 15C22.5 15.7956 22.8161 16.5587 23.3787 17.1213C23.9413 17.6839 24.7044 18 25.5 18ZM9.03 32.896C10.01 33.592 11.208 34 12.5 34H28.5C29.792 34 30.99 33.592 31.97 32.896L21.202 22.296C21.0149 22.1116 20.7627 22.0082 20.5 22.0082C20.2373 22.0082 19.9851 22.1116 19.798 22.296L9.03 32.896Z" fill="#606060"/>
</svg>
