<svg width="20" height="20" viewBox="0 0 20 20" fill="none" xmlns="http://www.w3.org/2000/svg">
<path d="M3.33301 6.66634H4.99967M3.33301 9.99967H5.83301M3.33301 13.333H4.99967M6.66634 3.33301V4.99967M9.99967 3.33301V5.83301M13.333 3.33301V4.99967M4.16634 3.33301H15.833C16.054 3.33301 16.266 3.42081 16.4223 3.57709C16.5785 3.73337 16.6663 3.94533 16.6663 4.16634V8.33301C16.6663 8.55402 16.5785 8.76598 16.4223 8.92226C16.266 9.07854 16.054 9.16634 15.833 9.16634H9.99967C9.77866 9.16634 9.5667 9.25414 9.41042 9.41042C9.25414 9.5667 9.16634 9.77866 9.16634 9.99967V15.833C9.16634 16.054 9.07854 16.266 8.92226 16.4223C8.76598 16.5785 8.55402 16.6663 8.33301 16.6663H4.16634C3.94533 16.6663 3.73337 16.5785 3.57709 16.4223C3.42081 16.266 3.33301 16.054 3.33301 15.833V4.16634C3.33301 3.94533 3.42081 3.73337 3.57709 3.57709C3.73337 3.42081 3.94533 3.33301 4.16634 3.33301Z" stroke="#606060" stroke-width="1.5" stroke-linecap="round" stroke-linejoin="round"/>
</svg>
