<svg width="20" height="18" viewBox="0 0 20 18" fill="none" xmlns="http://www.w3.org/2000/svg">
<path fill-rule="evenodd" clip-rule="evenodd" d="M16.6663 2.33366H3.33301C3.11199 2.33366 2.90003 2.42146 2.74375 2.57774C2.58747 2.73402 2.49967 2.94598 2.49967 3.16699V14.8337C2.49967 15.0547 2.58747 15.2666 2.74375 15.4229C2.90003 15.5792 3.11199 15.667 3.33301 15.667H16.6663C16.8874 15.667 17.0993 15.5792 17.2556 15.4229C17.4119 15.2666 17.4997 15.0547 17.4997 14.8337V3.16699C17.4997 2.94598 17.4119 2.73402 17.2556 2.57774C17.0993 2.42146 16.8874 2.33366 16.6663 2.33366ZM3.33301 0.666992C2.66997 0.666992 2.03408 0.930384 1.56524 1.39923C1.0964 1.86807 0.833008 2.50395 0.833008 3.16699V14.8337C0.833008 15.4967 1.0964 16.1326 1.56524 16.6014C2.03408 17.0703 2.66997 17.3337 3.33301 17.3337H16.6663C17.3294 17.3337 17.9653 17.0703 18.4341 16.6014C18.903 16.1326 19.1663 15.4967 19.1663 14.8337V3.16699C19.1663 2.50395 18.903 1.86807 18.4341 1.39923C17.9653 0.930384 17.3294 0.666992 16.6663 0.666992H3.33301ZM4.99967 4.83366H6.66634V6.50032H4.99967V4.83366ZM9.16634 4.83366C8.94533 4.83366 8.73337 4.92146 8.57709 5.07774C8.42081 5.23402 8.33301 5.44598 8.33301 5.66699C8.33301 5.88801 8.42081 6.09997 8.57709 6.25625C8.73337 6.41253 8.94533 6.50032 9.16634 6.50032H14.1663C14.3874 6.50032 14.5993 6.41253 14.7556 6.25625C14.9119 6.09997 14.9997 5.88801 14.9997 5.66699C14.9997 5.44598 14.9119 5.23402 14.7556 5.07774C14.5993 4.92146 14.3874 4.83366 14.1663 4.83366H9.16634ZM6.66634 8.16699H4.99967V9.83366H6.66634V8.16699ZM8.33301 9.00032C8.33301 8.77931 8.42081 8.56735 8.57709 8.41107C8.73337 8.25479 8.94533 8.16699 9.16634 8.16699H14.1663C14.3874 8.16699 14.5993 8.25479 14.7556 8.41107C14.9119 8.56735 14.9997 8.77931 14.9997 9.00032C14.9997 9.22134 14.9119 9.4333 14.7556 9.58958C14.5993 9.74586 14.3874 9.83366 14.1663 9.83366H9.16634C8.94533 9.83366 8.73337 9.74586 8.57709 9.58958C8.42081 9.4333 8.33301 9.22134 8.33301 9.00032ZM6.66634 11.5003H4.99967V13.167H6.66634V11.5003ZM8.33301 12.3337C8.33301 12.1126 8.42081 11.9007 8.57709 11.7444C8.73337 11.5881 8.94533 11.5003 9.16634 11.5003H14.1663C14.3874 11.5003 14.5993 11.5881 14.7556 11.7444C14.9119 11.9007 14.9997 12.1126 14.9997 12.3337C14.9997 12.5547 14.9119 12.7666 14.7556 12.9229C14.5993 13.0792 14.3874 13.167 14.1663 13.167H9.16634C8.94533 13.167 8.73337 13.0792 8.57709 12.9229C8.42081 12.7666 8.33301 12.5547 8.33301 12.3337Z" fill="#fff"/>
</svg>
