<svg width="212" height="212" viewBox="0 0 212 212" fill="none" xmlns="http://www.w3.org/2000/svg">
<g clip-path="url(#clip0_1922_593)">
<path d="M147.826 25.0428C144.818 22.0336 140.826 20.2106 136.583 19.9088C132.339 19.607 128.129 20.8465 124.726 23.3998L98.995 42.7006C88.3058 50.7193 75.7679 55.9144 62.5398 57.8056L43.3096 60.544C36.8613 61.4715 32.1355 68.4144 35.2448 75.2249C38.1686 81.6114 47.479 98.4478 73.7581 125.752L36.8525 162.657C36.0088 163.472 35.3359 164.447 34.8729 165.525C34.41 166.602 34.1663 167.761 34.1561 168.934C34.1459 170.107 34.3694 171.27 34.8135 172.356C35.2577 173.441 35.9136 174.428 36.743 175.257C37.5724 176.086 38.5586 176.742 39.6442 177.187C40.7298 177.631 41.893 177.854 43.0659 177.844C44.2387 177.834 45.3978 177.59 46.4755 177.127C47.5532 176.664 48.528 175.991 49.3428 175.148L86.2485 138.242C113.552 164.521 130.389 173.831 136.775 176.755C143.577 179.865 150.529 175.139 151.447 168.69L154.194 149.46C156.086 136.232 161.281 123.694 169.299 113.005L188.591 87.2736C191.145 83.8707 192.384 79.6608 192.082 75.4173C191.781 71.1738 189.958 67.1817 186.948 64.1744L147.826 25.0428Z" fill="#EC1C24"/>
</g>
<defs>
<clipPath id="clip0_1922_593">
<rect width="212" height="212" fill="white"/>
</clipPath>
</defs>
</svg>
