<svg width="256" height="256" viewBox="0 0 256 256" fill="none" xmlns="http://www.w3.org/2000/svg">
<path opacity="0.2" d="M229.66 98.3391L172.39 155.799C183.85 178.729 170.67 201.659 162.28 212.799C161.59 213.705 160.715 214.453 159.712 214.993C158.71 215.534 157.604 215.854 156.468 215.932C155.332 216.011 154.192 215.846 153.125 215.449C152.058 215.052 151.088 214.431 150.28 213.629L42.3399 105.759C41.5434 104.963 40.9237 104.009 40.5215 102.957C40.1193 101.905 39.9436 100.781 40.0059 99.6565C40.0682 98.5323 40.3671 97.434 40.883 96.4332C41.399 95.4325 42.1203 94.5519 42.9999 93.8491C72.6499 69.9291 100.4 83.8491 100.4 83.8491L157.67 26.3891C159.17 24.89 161.204 24.0479 163.325 24.0479C165.446 24.0479 167.48 24.89 168.98 26.3891L229.66 86.9991C230.407 87.7425 230.999 88.6261 231.404 89.5991C231.808 90.5721 232.016 91.6154 232.016 92.6691C232.016 93.7229 231.808 94.7662 231.404 95.7392C230.999 96.7122 230.407 97.5958 229.66 98.3391Z" fill="#EC1C24"/>
<path d="M235.32 81.3695L174.63 20.6895C173.144 19.2034 171.38 18.0245 169.439 17.2202C167.497 16.4159 165.416 16.002 163.315 16.002C161.213 16.002 159.132 16.4159 157.191 17.2202C155.25 18.0245 153.486 19.2034 152 20.6895L98.3698 74.4895C87.7098 71.1495 63.3698 67.1195 37.9698 87.6295C36.219 89.0373 34.7844 90.798 33.7592 92.797C32.734 94.796 32.1413 96.9885 32.0196 99.2317C31.8979 101.475 32.25 103.719 33.0529 105.817C33.8558 107.915 35.0916 109.821 36.6798 111.41L84.9998 159.71L42.3398 202.34C40.8387 203.841 39.9953 205.877 39.9953 208C39.9953 210.122 40.8387 212.158 42.3398 213.66C43.8409 215.161 45.8769 216.004 47.9998 216.004C50.1227 216.004 52.1587 215.161 53.6598 213.66L96.2898 171L144.58 219.29C146.064 220.78 147.828 221.964 149.771 222.772C151.713 223.58 153.796 223.997 155.9 224H157.03C159.311 223.842 161.531 223.194 163.539 222.102C165.548 221.01 167.297 219.498 168.67 217.67C188.31 191.57 186.42 170.35 181.86 157.67L235.33 104C236.815 102.513 237.993 100.749 238.797 98.8068C239.6 96.865 240.013 94.7839 240.012 92.6825C240.011 90.581 239.597 88.5003 238.791 86.5592C237.986 84.6181 236.807 82.8547 235.32 81.3695ZM224 92.6895L166.73 150.15C165.547 151.337 164.767 152.865 164.5 154.52C164.232 156.174 164.491 157.87 165.24 159.37C174.7 178.3 163.44 197.96 155.9 207.99L47.9998 100.08C60.0798 90.3395 71.6398 87.7695 80.4798 87.7695C86.0891 87.6921 91.6523 88.7925 96.8098 90.9995C98.3145 91.7526 100.018 92.012 101.679 91.741C103.34 91.4699 104.873 90.682 106.06 89.4895L163.32 31.9995L224 92.6795V92.6895Z" fill="#EC1C24"/>
</svg>
