<svg width="25" height="25" viewBox="0 0 25 25" fill="none" xmlns="http://www.w3.org/2000/svg">
<path d="M23 20.3021H21.5V9.80212C21.5 9.4043 21.342 9.02277 21.0607 8.74146C20.7794 8.46016 20.3978 8.30212 20 8.30212H14V3.80212C14.0002 3.53049 13.9266 3.26392 13.7871 3.03084C13.6476 2.79777 13.4474 2.60694 13.208 2.47874C12.9685 2.35053 12.6987 2.28976 12.4274 2.30291C12.1561 2.31605 11.8935 2.40262 11.6675 2.55337L4.1675 7.55212C3.96176 7.68939 3.79315 7.87541 3.67669 8.09361C3.56023 8.3118 3.49953 8.55542 3.5 8.80275V20.3021H2C1.80109 20.3021 1.61032 20.3811 1.46967 20.5218C1.32902 20.6624 1.25 20.8532 1.25 21.0521C1.25 21.251 1.32902 21.4418 1.46967 21.5825C1.61032 21.7231 1.80109 21.8021 2 21.8021H23C23.1989 21.8021 23.3897 21.7231 23.5303 21.5825C23.671 21.4418 23.75 21.251 23.75 21.0521C23.75 20.8532 23.671 20.6624 23.5303 20.5218C23.3897 20.3811 23.1989 20.3021 23 20.3021ZM20 9.80212V20.3021H14V9.80212H20ZM5 8.80275L12.5 3.80212V20.3021H5V8.80275ZM11 11.3021V12.8021C11 13.001 10.921 13.1918 10.7803 13.3325C10.6397 13.4731 10.4489 13.5521 10.25 13.5521C10.0511 13.5521 9.86032 13.4731 9.71967 13.3325C9.57902 13.1918 9.5 13.001 9.5 12.8021V11.3021C9.5 11.1032 9.57902 10.9124 9.71967 10.7718C9.86032 10.6311 10.0511 10.5521 10.25 10.5521C10.4489 10.5521 10.6397 10.6311 10.7803 10.7718C10.921 10.9124 11 11.1032 11 11.3021ZM8 11.3021V12.8021C8 13.001 7.92098 13.1918 7.78033 13.3325C7.63968 13.4731 7.44891 13.5521 7.25 13.5521C7.05109 13.5521 6.86032 13.4731 6.71967 13.3325C6.57902 13.1918 6.5 13.001 6.5 12.8021V11.3021C6.5 11.1032 6.57902 10.9124 6.71967 10.7718C6.86032 10.6311 7.05109 10.5521 7.25 10.5521C7.44891 10.5521 7.63968 10.6311 7.78033 10.7718C7.92098 10.9124 8 11.1032 8 11.3021ZM8 16.5521V18.0521C8 18.251 7.92098 18.4418 7.78033 18.5825C7.63968 18.7231 7.44891 18.8021 7.25 18.8021C7.05109 18.8021 6.86032 18.7231 6.71967 18.5825C6.57902 18.4418 6.5 18.251 6.5 18.0521V16.5521C6.5 16.3532 6.57902 16.1624 6.71967 16.0218C6.86032 15.8811 7.05109 15.8021 7.25 15.8021C7.44891 15.8021 7.63968 15.8811 7.78033 16.0218C7.92098 16.1624 8 16.3532 8 16.5521ZM11 16.5521V18.0521C11 18.251 10.921 18.4418 10.7803 18.5825C10.6397 18.7231 10.4489 18.8021 10.25 18.8021C10.0511 18.8021 9.86032 18.7231 9.71967 18.5825C9.57902 18.4418 9.5 18.251 9.5 18.0521V16.5521C9.5 16.3532 9.57902 16.1624 9.71967 16.0218C9.86032 15.8811 10.0511 15.8021 10.25 15.8021C10.4489 15.8021 10.6397 15.8811 10.7803 16.0218C10.921 16.1624 11 16.3532 11 16.5521Z" fill="white"/>
</svg>
