<svg width="18" height="18" viewBox="0 0 18 18" fill="none" xmlns="http://www.w3.org/2000/svg">
<path d="M1.5 14.25V9.75C1.5 9.4125 1.56875 9.10625 1.70625 8.83125C1.84375 8.55625 2.025 8.3125 2.25 8.1V6C2.25 5.375 2.46875 4.84375 2.90625 4.40625C3.34375 3.96875 3.875 3.75 4.5 3.75H7.5C7.7875 3.75 8.05625 3.80325 8.30625 3.90975C8.55625 4.01625 8.7875 4.163 9 4.35C9.2125 4.1625 9.44375 4.01575 9.69375 3.90975C9.94375 3.80375 10.2125 3.7505 10.5 3.75H13.5C14.125 3.75 14.6562 3.96875 15.0938 4.40625C15.5312 4.84375 15.75 5.375 15.75 6V8.1C15.975 8.3125 16.1562 8.55625 16.2938 8.83125C16.4313 9.10625 16.5 9.4125 16.5 9.75V14.25H15V12.75H3V14.25H1.5ZM9.75 7.5H14.25V6C14.25 5.7875 14.178 5.6095 14.034 5.466C13.89 5.3225 13.712 5.2505 13.5 5.25H10.5C10.2875 5.25 10.1095 5.322 9.966 5.466C9.8225 5.61 9.7505 5.788 9.75 6V7.5ZM3.75 7.5H8.25V6C8.25 5.7875 8.178 5.6095 8.034 5.466C7.89 5.3225 7.712 5.2505 7.5 5.25H4.5C4.2875 5.25 4.1095 5.322 3.966 5.466C3.8225 5.61 3.7505 5.788 3.75 6V7.5ZM3 11.25H15V9.75C15 9.5375 14.928 9.3595 14.784 9.216C14.64 9.0725 14.462 9.0005 14.25 9H3.75C3.5375 9 3.3595 9.072 3.216 9.216C3.0725 9.36 3.0005 9.538 3 9.75V11.25Z" fill="#939393"/>
</svg>
