<svg width="25" height="25" viewBox="0 0 25 25" fill="none" xmlns="http://www.w3.org/2000/svg">
<path d="M16.5 6.80212C16.5 4.91612 16.5 3.97412 15.914 3.38812C15.328 2.80212 14.386 2.80212 12.5 2.80212C10.614 2.80212 9.672 2.80212 9.086 3.38812C8.5 3.97412 8.5 4.91612 8.5 6.80212M2.5 14.8021C2.5 11.0311 2.5 9.14512 3.672 7.97412C4.843 6.80212 6.729 6.80212 10.5 6.80212H14.5C18.271 6.80212 20.157 6.80212 21.328 7.97412C22.5 9.14512 22.5 11.0311 22.5 14.8021C22.5 18.5731 22.5 20.4591 21.328 21.6301C20.157 22.8021 18.271 22.8021 14.5 22.8021H10.5C6.729 22.8021 4.843 22.8021 3.672 21.6301C2.5 20.4591 2.5 18.5731 2.5 14.8021Z" stroke="white" stroke-width="1.5"/>
<path d="M12.5 18.1351C13.605 18.1351 14.5 17.3891 14.5 16.4691C14.5 15.5491 13.605 14.8021 12.5 14.8021C11.395 14.8021 10.5 14.0561 10.5 13.1351C10.5 12.2151 11.395 11.4691 12.5 11.4691M12.5 18.1351C11.395 18.1351 10.5 17.3891 10.5 16.4691M12.5 18.1351V18.8021M12.5 11.4691V10.8021M12.5 11.4691C13.605 11.4691 14.5 12.2151 14.5 13.1351" stroke="white" stroke-width="1.5" stroke-linecap="round"/>
</svg>
