<svg width="21" height="21" viewBox="0 0 21 21" fill="none" xmlns="http://www.w3.org/2000/svg">
<path d="M14.2498 6.42712H16.8098C16.9646 6.42728 17.1139 6.4849 17.2287 6.58882C17.3435 6.69274 17.4156 6.83557 17.4311 6.98962L17.8123 10.8021H16.5548L16.2423 7.67712H14.2498V9.55212C14.2498 9.71788 14.184 9.87686 14.0668 9.99407C13.9495 10.1113 13.7906 10.1771 13.6248 10.1771C13.4591 10.1771 13.3001 10.1113 13.1829 9.99407C13.0657 9.87686 12.9998 9.71788 12.9998 9.55212V7.67712H7.99981V9.55212C7.99981 9.71788 7.93396 9.87686 7.81675 9.99407C7.69954 10.1113 7.54057 10.1771 7.37481 10.1771C7.20905 10.1771 7.05008 10.1113 6.93287 9.99407C6.81566 9.87686 6.74981 9.71788 6.74981 9.55212V7.67712H4.75606L3.75606 17.6771H10.4998V18.9271H3.06481C2.97752 18.927 2.89121 18.9087 2.81145 18.8732C2.73168 18.8377 2.66024 18.7859 2.60171 18.7212C2.54318 18.6564 2.49887 18.5801 2.47163 18.4971C2.4444 18.4142 2.43483 18.3265 2.44356 18.2396L3.56856 6.98962C3.58405 6.83557 3.65616 6.69274 3.77094 6.58882C3.88571 6.4849 4.03498 6.42728 4.18981 6.42712H6.74981V5.99087C6.74981 3.82337 8.41981 2.05212 10.4998 2.05212C12.5798 2.05212 14.2498 3.82337 14.2498 5.99087V6.42837V6.42712ZM12.9998 6.42712V5.99087C12.9998 4.49837 11.8723 3.30212 10.4998 3.30212C9.12731 3.30212 7.99981 4.49837 7.99981 5.99087V6.42837H12.9998V6.42712ZM16.9336 15.8771L15.4998 14.4446V18.9271C15.4998 19.0929 15.434 19.2519 15.3168 19.3691C15.1995 19.4863 15.0406 19.5521 14.8748 19.5521C14.709 19.5521 14.5501 19.4863 14.4329 19.3691C14.3157 19.2519 14.2498 19.0929 14.2498 18.9271V14.4446L12.8173 15.8771C12.7597 15.9368 12.6907 15.9844 12.6144 16.0172C12.5382 16.0499 12.4562 16.0672 12.3732 16.0679C12.2902 16.0686 12.2079 16.0528 12.1311 16.0214C12.0543 15.99 11.9845 15.9436 11.9258 15.8849C11.8671 15.8262 11.8207 15.7564 11.7893 15.6796C11.7579 15.6028 11.7421 15.5205 11.7428 15.4375C11.7435 15.3545 11.7607 15.2725 11.7935 15.1962C11.8263 15.12 11.8739 15.051 11.9336 14.9934L14.4336 12.4934C14.5508 12.3762 14.7097 12.3104 14.8754 12.3104C15.0412 12.3104 15.2001 12.3762 15.3173 12.4934L17.8173 14.9934C17.877 15.051 17.9246 15.12 17.9574 15.1962C17.9901 15.2725 18.0074 15.3545 18.0081 15.4375C18.0088 15.5205 17.993 15.6028 17.9616 15.6796C17.9301 15.7564 17.8837 15.8262 17.8251 15.8849C17.7664 15.9436 17.6966 15.99 17.6198 16.0214C17.543 16.0528 17.4607 16.0686 17.3777 16.0679C17.2947 16.0672 17.2127 16.0499 17.1364 16.0172C17.0602 15.9844 16.9912 15.9368 16.9336 15.8771Z" fill="white"/>
</svg>
