<svg width="20" height="20" viewBox="0 0 20 20" fill="none" xmlns="http://www.w3.org/2000/svg">
<path d="M3.22985 18.3337V9.23489H1.66699L10.0003 1.66699L14.3402 5.63064V3.02271H16.1637V7.25818L18.3337 9.23489H16.7708V18.3337H11.3883V12.3853H8.61238V18.3337H3.22985ZM4.35826 17.1963H7.48396V11.248H12.5167V17.1963H15.6424V8.32502L10.0003 3.20696L4.35826 8.32502V17.1963ZM7.96016 8.10437H12.0405C12.0405 7.57058 11.8363 7.13118 11.4278 6.78619C11.02 6.44119 10.5442 6.26869 10.0003 6.26869C9.45643 6.26869 8.98062 6.44043 8.57288 6.78391C8.1644 7.12739 7.96016 7.5683 7.96016 8.10437Z" fill="#606060"/>
</svg>
