<svg width="25" height="25" viewBox="0 0 25 25" fill="none" xmlns="http://www.w3.org/2000/svg">
<path d="M12.5 15.4061L14.967 17.2761C15.129 17.3961 15.294 17.4001 15.462 17.2881C15.63 17.1761 15.685 17.0225 15.627 16.8271L14.692 13.7371L17.088 12.0451C17.264 11.9151 17.32 11.7538 17.256 11.5611C17.192 11.3678 17.0567 11.2711 16.85 11.2711H13.908L12.898 8.02512C12.828 7.83046 12.6957 7.73312 12.501 7.73312C12.3057 7.73312 12.1723 7.83046 12.101 8.02512L11.092 11.2711H8.15C7.94333 11.2711 7.808 11.3678 7.744 11.5611C7.68 11.7545 7.736 11.9158 7.912 12.0451L10.308 13.7371L9.373 16.8271C9.31567 17.0218 9.37067 17.1751 9.538 17.2871C9.706 17.3998 9.871 17.3958 10.033 17.2751L12.5 15.4061ZM12.503 21.8021C11.259 21.8021 10.089 21.5661 8.993 21.0941C7.89767 20.6215 6.94467 19.9801 6.134 19.1701C5.32333 18.3608 4.68167 17.4088 4.209 16.3141C3.73633 15.2195 3.5 14.0498 3.5 12.8051C3.5 11.5611 3.736 10.3911 4.208 9.29512C4.68067 8.19979 5.322 7.24679 6.132 6.43612C6.94133 5.62546 7.89333 4.98379 8.988 4.51112C10.0827 4.03846 11.2523 3.80212 12.497 3.80212C13.741 3.80212 14.911 4.03812 16.007 4.51012C17.1023 4.98279 18.0553 5.62412 18.866 6.43412C19.6767 7.24346 20.3183 8.19546 20.791 9.29012C21.2637 10.3848 21.5 11.5545 21.5 12.7991C21.5 14.0431 21.264 15.2131 20.792 16.3091C20.3193 17.4045 19.678 18.3575 18.868 19.1681C18.0587 19.9788 17.1067 20.6205 16.012 21.0931C14.9173 21.5658 13.7477 21.8021 12.503 21.8021ZM12.5 20.8021C14.7167 20.8021 16.6043 20.0231 18.163 18.4651C19.7217 16.9071 20.5007 15.0195 20.5 12.8021C20.5 10.5855 19.721 8.69779 18.163 7.13912C16.605 5.58046 14.7173 4.80146 12.5 4.80212C10.2833 4.80212 8.39567 5.58146 6.837 7.14012C5.27833 8.69879 4.49933 10.5861 4.5 12.8021C4.5 15.0188 5.27933 16.9065 6.838 18.4651C8.39667 20.0238 10.284 20.8028 12.5 20.8021Z" fill="white"/>
</svg>
