<svg width="25" height="25" viewBox="0 0 25 25" fill="none" xmlns="http://www.w3.org/2000/svg">
<path d="M16.5 21.8021V19.8021C16.5 18.7413 16.0786 17.7238 15.3284 16.9737C14.5783 16.2236 13.5609 15.8021 12.5 15.8021H6.5C5.43913 15.8021 4.42172 16.2236 3.67157 16.9737C2.92143 17.7238 2.5 18.7413 2.5 19.8021V21.8021" stroke="white" stroke-width="2" stroke-linecap="round" stroke-linejoin="round"/>
<path d="M9.5 11.8021C11.7091 11.8021 13.5 10.0113 13.5 7.80212C13.5 5.59298 11.7091 3.80212 9.5 3.80212C7.29086 3.80212 5.5 5.59298 5.5 7.80212C5.5 10.0113 7.29086 11.8021 9.5 11.8021Z" stroke="white" stroke-width="2" stroke-linecap="round" stroke-linejoin="round"/>
<path d="M22.5 21.8021V19.8021C22.4993 18.9159 22.2044 18.0549 21.6614 17.3544C21.1184 16.654 20.3581 16.1537 19.5 15.9321M16.5 3.93213C17.3604 4.15243 18.123 4.65283 18.6676 5.35444C19.2122 6.05605 19.5078 6.91896 19.5078 7.80713C19.5078 8.6953 19.2122 9.55821 18.6676 10.2598C18.123 10.9614 17.3604 11.4618 16.5 11.6821" stroke="white" stroke-width="2" stroke-linecap="round" stroke-linejoin="round"/>
</svg>
